<mxfile host="65bd71144e" modified="2021-01-16T03:07:11.027Z" agent="5.0 (Macintosh; Intel Mac OS X 11_0_0) AppleWebKit/537.36 (KHTML, like Gecko) Code/1.52.1 Chrome/83.0.4103.122 Electron/9.3.5 Safari/537.36" etag="qzHOvqy8ITDGBPjk17Q8" version="13.10.0" type="embed">
    <diagram id="nL2kgjOZMkswil4SQd4Z" name="第 1 页">
        <mxGraphModel dx="860" dy="518" grid="1" gridSize="10" guides="1" tooltips="1" connect="1" arrows="1" fold="1" page="1" pageScale="1" pageWidth="827" pageHeight="1169" math="0" shadow="0">
            <root>
                <mxCell id="0"/>
                <mxCell id="1" parent="0"/>
                <mxCell id="77" value="" style="rounded=1;whiteSpace=wrap;html=1;" vertex="1" parent="1">
                    <mxGeometry x="10" y="640" width="830" height="400" as="geometry"/>
                </mxCell>
                <mxCell id="75" value="" style="rounded=1;whiteSpace=wrap;html=1;" vertex="1" parent="1">
                    <mxGeometry x="30" y="820" width="400" height="205" as="geometry"/>
                </mxCell>
                <mxCell id="69" value="" style="rounded=0;whiteSpace=wrap;html=1;" parent="1" vertex="1">
                    <mxGeometry x="420" y="460" width="140" height="160" as="geometry"/>
                </mxCell>
                <mxCell id="70" value="node可用的js" style="shape=hexagon;perimeter=hexagonPerimeter2;whiteSpace=wrap;html=1;fixedSize=1;" parent="1" vertex="1">
                    <mxGeometry x="430" y="530" width="120" height="80" as="geometry"/>
                </mxCell>
                <mxCell id="68" value="" style="rounded=0;whiteSpace=wrap;html=1;" parent="1" vertex="1">
                    <mxGeometry x="290" y="460" width="130" height="160" as="geometry"/>
                </mxCell>
                <mxCell id="67" value="浏览器可用的js" style="shape=hexagon;perimeter=hexagonPerimeter2;whiteSpace=wrap;html=1;fixedSize=1;" parent="1" vertex="1">
                    <mxGeometry x="294" y="530" width="120" height="80" as="geometry"/>
                </mxCell>
                <mxCell id="55" value="" style="rounded=1;whiteSpace=wrap;html=1;" parent="1" vertex="1">
                    <mxGeometry x="450" y="50" width="340" height="250" as="geometry"/>
                </mxCell>
                <mxCell id="10" style="edgeStyle=orthogonalEdgeStyle;rounded=0;orthogonalLoop=1;jettySize=auto;html=1;entryX=0.5;entryY=0;entryDx=0;entryDy=0;" parent="1" source="5" target="9" edge="1">
                    <mxGeometry relative="1" as="geometry"/>
                </mxCell>
                <mxCell id="5" value="" style="rounded=1;whiteSpace=wrap;html=1;" parent="1" vertex="1">
                    <mxGeometry x="50" y="60" width="250" height="230" as="geometry"/>
                </mxCell>
                <mxCell id="97" style="edgeStyle=orthogonalEdgeStyle;rounded=0;orthogonalLoop=1;jettySize=auto;html=1;" edge="1" parent="1" source="2" target="95">
                    <mxGeometry relative="1" as="geometry">
                        <Array as="points">
                            <mxPoint x="240" y="120"/>
                            <mxPoint x="240" y="120"/>
                        </Array>
                    </mxGeometry>
                </mxCell>
                <mxCell id="2" value="chrome" style="whiteSpace=wrap;html=1;aspect=fixed;" parent="1" vertex="1">
                    <mxGeometry x="80" y="80" width="80" height="80" as="geometry"/>
                </mxCell>
                <mxCell id="3" value="IE" style="whiteSpace=wrap;html=1;aspect=fixed;" parent="1" vertex="1">
                    <mxGeometry x="130" y="140" width="80" height="80" as="geometry"/>
                </mxCell>
                <mxCell id="98" style="edgeStyle=orthogonalEdgeStyle;rounded=0;orthogonalLoop=1;jettySize=auto;html=1;" edge="1" parent="1" source="4" target="95">
                    <mxGeometry relative="1" as="geometry">
                        <Array as="points">
                            <mxPoint x="290" y="230"/>
                        </Array>
                    </mxGeometry>
                </mxCell>
                <mxCell id="4" value="firefox" style="whiteSpace=wrap;html=1;aspect=fixed;" parent="1" vertex="1">
                    <mxGeometry x="180" y="190" width="80" height="80" as="geometry"/>
                </mxCell>
                <mxCell id="6" value="浏览器" style="text;html=1;strokeColor=none;fillColor=none;align=center;verticalAlign=middle;whiteSpace=wrap;rounded=0;" parent="1" vertex="1">
                    <mxGeometry x="230" y="80" width="40" height="20" as="geometry"/>
                </mxCell>
                <mxCell id="64" style="edgeStyle=orthogonalEdgeStyle;rounded=0;orthogonalLoop=1;jettySize=auto;html=1;" parent="1" source="7" target="63" edge="1">
                    <mxGeometry relative="1" as="geometry"/>
                </mxCell>
                <mxCell id="7" value="html" style="ellipse;whiteSpace=wrap;html=1;aspect=fixed;" parent="1" vertex="1">
                    <mxGeometry x="40" y="320" width="80" height="80" as="geometry"/>
                </mxCell>
                <mxCell id="65" style="edgeStyle=orthogonalEdgeStyle;rounded=0;orthogonalLoop=1;jettySize=auto;html=1;entryX=0.75;entryY=0;entryDx=0;entryDy=0;" parent="1" source="8" target="63" edge="1">
                    <mxGeometry relative="1" as="geometry"/>
                </mxCell>
                <mxCell id="8" value="c s s" style="ellipse;whiteSpace=wrap;html=1;aspect=fixed;" parent="1" vertex="1">
                    <mxGeometry x="150" y="320" width="80" height="80" as="geometry"/>
                </mxCell>
                <mxCell id="61" style="edgeStyle=orthogonalEdgeStyle;rounded=0;orthogonalLoop=1;jettySize=auto;html=1;entryX=0.375;entryY=0;entryDx=0;entryDy=0;" parent="1" source="9" target="51" edge="1">
                    <mxGeometry relative="1" as="geometry">
                        <Array as="points">
                            <mxPoint x="300" y="450"/>
                            <mxPoint x="399" y="450"/>
                        </Array>
                    </mxGeometry>
                </mxCell>
                <mxCell id="9" value="js" style="ellipse;whiteSpace=wrap;html=1;aspect=fixed;" parent="1" vertex="1">
                    <mxGeometry x="254" y="320" width="80" height="80" as="geometry"/>
                </mxCell>
                <mxCell id="52" style="edgeStyle=orthogonalEdgeStyle;rounded=0;orthogonalLoop=1;jettySize=auto;html=1;exitX=0.25;exitY=1;exitDx=0;exitDy=0;" parent="1" source="53" target="51" edge="1">
                    <mxGeometry relative="1" as="geometry">
                        <Array as="points">
                            <mxPoint x="522" y="450"/>
                            <mxPoint x="440" y="450"/>
                        </Array>
                    </mxGeometry>
                </mxCell>
                <mxCell id="99" style="edgeStyle=orthogonalEdgeStyle;rounded=0;orthogonalLoop=1;jettySize=auto;html=1;" edge="1" parent="1" source="12" target="95">
                    <mxGeometry relative="1" as="geometry"/>
                </mxCell>
                <mxCell id="12" value="node" style="whiteSpace=wrap;html=1;aspect=fixed;" parent="1" vertex="1">
                    <mxGeometry x="520" y="80" width="80" height="80" as="geometry"/>
                </mxCell>
                <mxCell id="18" style="edgeStyle=orthogonalEdgeStyle;rounded=0;orthogonalLoop=1;jettySize=auto;html=1;" parent="1" source="13" target="17" edge="1">
                    <mxGeometry relative="1" as="geometry"/>
                </mxCell>
                <mxCell id="13" value="python" style="whiteSpace=wrap;html=1;aspect=fixed;" parent="1" vertex="1">
                    <mxGeometry x="570" y="130" width="80" height="80" as="geometry"/>
                </mxCell>
                <mxCell id="16" style="edgeStyle=orthogonalEdgeStyle;rounded=0;orthogonalLoop=1;jettySize=auto;html=1;" parent="1" source="14" target="15" edge="1">
                    <mxGeometry relative="1" as="geometry"/>
                </mxCell>
                <mxCell id="14" value="shell" style="whiteSpace=wrap;html=1;aspect=fixed;" parent="1" vertex="1">
                    <mxGeometry x="620" y="180" width="80" height="80" as="geometry"/>
                </mxCell>
                <mxCell id="15" value="shell&amp;nbsp; 脚本" style="shape=hexagon;perimeter=hexagonPerimeter2;whiteSpace=wrap;html=1;fixedSize=1;" parent="1" vertex="1">
                    <mxGeometry x="840" y="180" width="120" height="80" as="geometry"/>
                </mxCell>
                <mxCell id="17" value="python 脚本" style="shape=hexagon;perimeter=hexagonPerimeter2;whiteSpace=wrap;html=1;fixedSize=1;" parent="1" vertex="1">
                    <mxGeometry x="840" y="80" width="120" height="80" as="geometry"/>
                </mxCell>
                <mxCell id="27" style="edgeStyle=orthogonalEdgeStyle;rounded=0;orthogonalLoop=1;jettySize=auto;html=1;entryX=0.5;entryY=0;entryDx=0;entryDy=0;" parent="1" source="19" target="29" edge="1">
                    <mxGeometry relative="1" as="geometry">
                        <mxPoint x="1140" y="300" as="targetPoint"/>
                    </mxGeometry>
                </mxCell>
                <mxCell id="19" value="都是字儿&lt;br&gt;&lt;br&gt;纯文本" style="ellipse;whiteSpace=wrap;html=1;aspect=fixed;" parent="1" vertex="1">
                    <mxGeometry x="1120" y="160" width="80" height="80" as="geometry"/>
                </mxCell>
                <mxCell id="31" style="edgeStyle=orthogonalEdgeStyle;rounded=0;orthogonalLoop=1;jettySize=auto;html=1;" parent="1" source="20" target="30" edge="1">
                    <mxGeometry relative="1" as="geometry"/>
                </mxCell>
                <mxCell id="20" value="图" style="ellipse;whiteSpace=wrap;html=1;aspect=fixed;" parent="1" vertex="1">
                    <mxGeometry x="1241" y="160" width="80" height="80" as="geometry"/>
                </mxCell>
                <mxCell id="33" style="edgeStyle=orthogonalEdgeStyle;rounded=0;orthogonalLoop=1;jettySize=auto;html=1;" parent="1" source="21" target="32" edge="1">
                    <mxGeometry relative="1" as="geometry"/>
                </mxCell>
                <mxCell id="21" value="音" style="ellipse;whiteSpace=wrap;html=1;aspect=fixed;" parent="1" vertex="1">
                    <mxGeometry x="1360" y="160" width="80" height="80" as="geometry"/>
                </mxCell>
                <mxCell id="35" style="edgeStyle=orthogonalEdgeStyle;rounded=0;orthogonalLoop=1;jettySize=auto;html=1;" parent="1" source="22" target="34" edge="1">
                    <mxGeometry relative="1" as="geometry"/>
                </mxCell>
                <mxCell id="36" style="edgeStyle=orthogonalEdgeStyle;rounded=0;orthogonalLoop=1;jettySize=auto;html=1;entryX=0.75;entryY=0;entryDx=0;entryDy=0;" parent="1" source="22" target="32" edge="1">
                    <mxGeometry relative="1" as="geometry"/>
                </mxCell>
                <mxCell id="22" value="图能动&lt;br&gt;&lt;br&gt;动画" style="ellipse;whiteSpace=wrap;html=1;aspect=fixed;" parent="1" vertex="1">
                    <mxGeometry x="1480" y="160" width="80" height="80" as="geometry"/>
                </mxCell>
                <mxCell id="24" value="程序/数据" style="ellipse;whiteSpace=wrap;html=1;aspect=fixed;" parent="1" vertex="1">
                    <mxGeometry x="1720" y="160" width="80" height="80" as="geometry"/>
                </mxCell>
                <mxCell id="45" style="edgeStyle=orthogonalEdgeStyle;rounded=0;orthogonalLoop=1;jettySize=auto;html=1;" parent="1" source="29" target="37" edge="1">
                    <mxGeometry relative="1" as="geometry">
                        <Array as="points">
                            <mxPoint x="1160" y="880"/>
                            <mxPoint x="1740" y="880"/>
                        </Array>
                    </mxGeometry>
                </mxCell>
                <mxCell id="46" value="经过某种编译器 编译成 可执行文件" style="edgeLabel;html=1;align=center;verticalAlign=middle;resizable=0;points=[];" parent="45" vertex="1" connectable="0">
                    <mxGeometry x="-0.0714" y="-1" relative="1" as="geometry">
                        <mxPoint as="offset"/>
                    </mxGeometry>
                </mxCell>
                <mxCell id="48" style="edgeStyle=orthogonalEdgeStyle;rounded=0;orthogonalLoop=1;jettySize=auto;html=1;entryX=0;entryY=0.5;entryDx=0;entryDy=0;" parent="1" source="29" target="47" edge="1">
                    <mxGeometry relative="1" as="geometry">
                        <Array as="points">
                            <mxPoint x="1090" y="535"/>
                            <mxPoint x="1090" y="960"/>
                        </Array>
                    </mxGeometry>
                </mxCell>
                <mxCell id="49" value="脚本&lt;br&gt;&lt;br&gt;执行脚本的程序" style="edgeLabel;html=1;align=center;verticalAlign=middle;resizable=0;points=[];" parent="48" vertex="1" connectable="0">
                    <mxGeometry x="0.2742" y="2" relative="1" as="geometry">
                        <mxPoint as="offset"/>
                    </mxGeometry>
                </mxCell>
                <mxCell id="29" value="&lt;ul&gt;&lt;li&gt;txt&lt;/li&gt;&lt;li&gt;js&lt;/li&gt;&lt;li&gt;py&lt;/li&gt;&lt;li&gt;shell&lt;/li&gt;&lt;li&gt;c&lt;/li&gt;&lt;li&gt;c++&lt;/li&gt;&lt;li&gt;html&lt;/li&gt;&lt;li&gt;css&lt;/li&gt;&lt;li&gt;svg&lt;/li&gt;&lt;/ul&gt;" style="shape=document;whiteSpace=wrap;html=1;boundedLbl=1;size=0.06976744186046512;" parent="1" vertex="1">
                    <mxGeometry x="1100" y="320" width="120" height="430" as="geometry"/>
                </mxCell>
                <mxCell id="30" value="&lt;ul&gt;&lt;li&gt;jpg&lt;/li&gt;&lt;li&gt;png&lt;/li&gt;&lt;li&gt;gif&lt;/li&gt;&lt;li&gt;svg 不算&lt;/li&gt;&lt;/ul&gt;" style="shape=document;whiteSpace=wrap;html=1;boundedLbl=1;size=0.06976744186046512;" parent="1" vertex="1">
                    <mxGeometry x="1250" y="320" width="120" height="430" as="geometry"/>
                </mxCell>
                <mxCell id="32" value="&lt;ul&gt;&lt;li&gt;mp3&lt;/li&gt;&lt;li&gt;wav&lt;/li&gt;&lt;li&gt;aac&lt;/li&gt;&lt;/ul&gt;" style="shape=document;whiteSpace=wrap;html=1;boundedLbl=1;size=0.06976744186046512;" parent="1" vertex="1">
                    <mxGeometry x="1400" y="320" width="120" height="430" as="geometry"/>
                </mxCell>
                <mxCell id="34" value="&lt;ul&gt;&lt;li&gt;mp4&lt;/li&gt;&lt;li&gt;avi&lt;/li&gt;&lt;li&gt;rmvb&lt;/li&gt;&lt;li&gt;mvk&lt;/li&gt;&lt;/ul&gt;" style="shape=document;whiteSpace=wrap;html=1;boundedLbl=1;size=0.06976744186046512;" parent="1" vertex="1">
                    <mxGeometry x="1560" y="320" width="120" height="430" as="geometry"/>
                </mxCell>
                <mxCell id="50" value="程序，直接可以运行" style="edgeStyle=orthogonalEdgeStyle;rounded=0;orthogonalLoop=1;jettySize=auto;html=1;entryX=0.994;entryY=0.35;entryDx=0;entryDy=0;entryPerimeter=0;" parent="1" source="37" target="47" edge="1">
                    <mxGeometry x="0.2406" y="25" relative="1" as="geometry">
                        <mxPoint as="offset"/>
                    </mxGeometry>
                </mxCell>
                <mxCell id="37" value="&lt;ul&gt;&lt;li&gt;exe - win特有 pe类型，可执行文件&lt;/li&gt;&lt;li&gt;ELF类型 - Linux 可执行文件&lt;/li&gt;&lt;li&gt;Mach-O 可执行文件 Mac&lt;/li&gt;&lt;/ul&gt;&lt;div&gt;&lt;br&gt;&lt;/div&gt;&lt;div&gt;&lt;br&gt;&lt;/div&gt;&lt;ul&gt;&lt;li&gt;动态链接库/静态链接库&lt;/li&gt;&lt;li&gt;是二进制，但是没有入口程序（mian）&lt;/li&gt;&lt;/ul&gt;" style="shape=document;whiteSpace=wrap;html=1;boundedLbl=1;size=0.06976744186046512;" parent="1" vertex="1">
                    <mxGeometry x="1740" y="320" width="270" height="430" as="geometry"/>
                </mxCell>
                <mxCell id="41" style="edgeStyle=orthogonalEdgeStyle;rounded=0;orthogonalLoop=1;jettySize=auto;html=1;" parent="1" source="38" target="37" edge="1">
                    <mxGeometry relative="1" as="geometry">
                        <Array as="points">
                            <mxPoint x="2070" y="360"/>
                            <mxPoint x="2070" y="535"/>
                        </Array>
                    </mxGeometry>
                </mxCell>
                <mxCell id="44" value="链接某个文件" style="edgeLabel;html=1;align=center;verticalAlign=middle;resizable=0;points=[];" parent="41" vertex="1" connectable="0">
                    <mxGeometry x="-0.0213" y="3" relative="1" as="geometry">
                        <mxPoint as="offset"/>
                    </mxGeometry>
                </mxCell>
                <mxCell id="42" style="edgeStyle=orthogonalEdgeStyle;rounded=0;orthogonalLoop=1;jettySize=auto;html=1;exitX=0;exitY=0.25;exitDx=0;exitDy=0;entryX=0.75;entryY=0;entryDx=0;entryDy=0;" parent="1" source="38" target="34" edge="1">
                    <mxGeometry relative="1" as="geometry">
                        <Array as="points">
                            <mxPoint x="2140" y="340"/>
                            <mxPoint x="2040" y="340"/>
                            <mxPoint x="2040" y="300"/>
                            <mxPoint x="1650" y="300"/>
                        </Array>
                    </mxGeometry>
                </mxCell>
                <mxCell id="43" value="链接到某个文件" style="edgeLabel;html=1;align=center;verticalAlign=middle;resizable=0;points=[];" parent="42" vertex="1" connectable="0">
                    <mxGeometry x="-0.097" y="-2" relative="1" as="geometry">
                        <mxPoint as="offset"/>
                    </mxGeometry>
                </mxCell>
                <mxCell id="38" value="快捷方式" style="shape=document;whiteSpace=wrap;html=1;boundedLbl=1;" parent="1" vertex="1">
                    <mxGeometry x="2140" y="310" width="120" height="80" as="geometry"/>
                </mxCell>
                <mxCell id="40" style="edgeStyle=orthogonalEdgeStyle;rounded=0;orthogonalLoop=1;jettySize=auto;html=1;" parent="1" source="39" target="38" edge="1">
                    <mxGeometry relative="1" as="geometry"/>
                </mxCell>
                <mxCell id="39" value="虚拟的，文件" style="ellipse;whiteSpace=wrap;html=1;aspect=fixed;" parent="1" vertex="1">
                    <mxGeometry x="2160" y="160" width="80" height="80" as="geometry"/>
                </mxCell>
                <mxCell id="47" value="程序 的 运行" style="shape=step;perimeter=stepPerimeter;whiteSpace=wrap;html=1;fixedSize=1;" parent="1" vertex="1">
                    <mxGeometry x="1120" y="920" width="820" height="80" as="geometry"/>
                </mxCell>
                <mxCell id="51" value="js 脚本" style="shape=hexagon;perimeter=hexagonPerimeter2;whiteSpace=wrap;html=1;fixedSize=1;fillColor=none;" parent="1" vertex="1">
                    <mxGeometry x="354" y="470" width="120" height="80" as="geometry"/>
                </mxCell>
                <mxCell id="53" value="js" style="ellipse;whiteSpace=wrap;html=1;aspect=fixed;" parent="1" vertex="1">
                    <mxGeometry x="500" y="320" width="80" height="80" as="geometry"/>
                </mxCell>
                <mxCell id="54" style="edgeStyle=orthogonalEdgeStyle;rounded=0;orthogonalLoop=1;jettySize=auto;html=1;exitX=0.25;exitY=1;exitDx=0;exitDy=0;" parent="1" source="12" target="53" edge="1">
                    <mxGeometry relative="1" as="geometry">
                        <mxPoint x="540" y="160" as="sourcePoint"/>
                        <mxPoint x="580" y="520" as="targetPoint"/>
                    </mxGeometry>
                </mxCell>
                <mxCell id="58" style="edgeStyle=orthogonalEdgeStyle;rounded=0;orthogonalLoop=1;jettySize=auto;html=1;exitX=0;exitY=0.5;exitDx=0;exitDy=0;" parent="1" source="56" target="12" edge="1">
                    <mxGeometry relative="1" as="geometry">
                        <Array as="points">
                            <mxPoint x="680" y="70"/>
                            <mxPoint x="560" y="70"/>
                        </Array>
                    </mxGeometry>
                </mxCell>
                <mxCell id="59" style="edgeStyle=orthogonalEdgeStyle;rounded=0;orthogonalLoop=1;jettySize=auto;html=1;" parent="1" source="56" target="13" edge="1">
                    <mxGeometry relative="1" as="geometry">
                        <Array as="points">
                            <mxPoint x="700" y="100"/>
                            <mxPoint x="610" y="100"/>
                        </Array>
                    </mxGeometry>
                </mxCell>
                <mxCell id="60" style="edgeStyle=orthogonalEdgeStyle;rounded=0;orthogonalLoop=1;jettySize=auto;html=1;" parent="1" source="56" target="14" edge="1">
                    <mxGeometry relative="1" as="geometry"/>
                </mxCell>
                <mxCell id="56" value="解释器" style="text;html=1;strokeColor=none;fillColor=none;align=center;verticalAlign=middle;whiteSpace=wrap;rounded=0;" parent="1" vertex="1">
                    <mxGeometry x="680" y="70" width="40" height="20" as="geometry"/>
                </mxCell>
                <mxCell id="62" value="理论上，应该是同一套东西&lt;br&gt;脚本可以兼容运行" style="text;html=1;align=center;verticalAlign=middle;resizable=0;points=[];autosize=1;" parent="1" vertex="1">
                    <mxGeometry x="334" y="410" width="160" height="30" as="geometry"/>
                </mxCell>
                <mxCell id="63" value="dom 对象" style="shape=process;whiteSpace=wrap;html=1;backgroundOutline=1;size=0.041666666666666664;" parent="1" vertex="1">
                    <mxGeometry x="40" y="560" width="240" height="60" as="geometry"/>
                </mxCell>
                <mxCell id="66" value="" style="shape=flexArrow;endArrow=classic;startArrow=classic;html=1;exitX=0.917;exitY=0.167;exitDx=0;exitDy=0;exitPerimeter=0;" parent="1" source="63" target="9" edge="1">
                    <mxGeometry width="50" height="50" relative="1" as="geometry">
                        <mxPoint x="220" y="500" as="sourcePoint"/>
                        <mxPoint x="270" y="450" as="targetPoint"/>
                    </mxGeometry>
                </mxCell>
                <mxCell id="71" value="没有图形界面&lt;br&gt;GUI" style="ellipse;shape=cloud;whiteSpace=wrap;html=1;fillColor=none;" parent="1" vertex="1">
                    <mxGeometry x="600" y="320" width="120" height="80" as="geometry"/>
                </mxCell>
                <mxCell id="72" value="多了更高级的权限&lt;br&gt;&lt;br&gt;文件&lt;br&gt;网络 &lt;br&gt;执行" style="ellipse;shape=cloud;whiteSpace=wrap;html=1;fillColor=none;" parent="1" vertex="1">
                    <mxGeometry x="650" y="370" width="190" height="150" as="geometry"/>
                </mxCell>
                <mxCell id="73" value="浏览器执行" style="shape=step;perimeter=stepPerimeter;whiteSpace=wrap;html=1;fixedSize=1;" vertex="1" parent="1">
                    <mxGeometry x="40" y="935" width="380" height="80" as="geometry"/>
                </mxCell>
                <mxCell id="94" style="edgeStyle=orthogonalEdgeStyle;rounded=0;orthogonalLoop=1;jettySize=auto;html=1;entryX=0.75;entryY=0;entryDx=0;entryDy=0;entryPerimeter=0;" edge="1" parent="1" source="74" target="93">
                    <mxGeometry relative="1" as="geometry"/>
                </mxCell>
                <mxCell id="74" value="node 执行" style="shape=step;perimeter=stepPerimeter;whiteSpace=wrap;html=1;fixedSize=1;" vertex="1" parent="1">
                    <mxGeometry x="447" y="930" width="380" height="80" as="geometry"/>
                </mxCell>
                <mxCell id="76" value="沙箱环境" style="text;html=1;strokeColor=none;fillColor=none;align=center;verticalAlign=middle;whiteSpace=wrap;rounded=0;" vertex="1" parent="1">
                    <mxGeometry x="40" y="850" width="70" height="20" as="geometry"/>
                </mxCell>
                <mxCell id="78" value="电脑。操作系统" style="text;html=1;strokeColor=none;fillColor=none;align=center;verticalAlign=middle;whiteSpace=wrap;rounded=0;" vertex="1" parent="1">
                    <mxGeometry x="40" y="650" width="110" height="20" as="geometry"/>
                </mxCell>
                <mxCell id="79" value="支付宝" style="ellipse;shape=cloud;whiteSpace=wrap;html=1;" vertex="1" parent="1">
                    <mxGeometry x="480" y="650" width="120" height="80" as="geometry"/>
                </mxCell>
                <mxCell id="80" value="" style="shape=flexArrow;endArrow=classic;html=1;entryX=0.818;entryY=1.25;entryDx=0;entryDy=0;entryPerimeter=0;" edge="1" parent="1" source="73" target="81">
                    <mxGeometry width="50" height="50" relative="1" as="geometry">
                        <mxPoint x="530" y="820" as="sourcePoint"/>
                        <mxPoint x="580" y="770" as="targetPoint"/>
                    </mxGeometry>
                </mxCell>
                <mxCell id="81" value="“安全的接口”" style="shape=process;whiteSpace=wrap;html=1;backgroundOutline=1;size=0.025;" vertex="1" parent="1">
                    <mxGeometry x="30" y="820" width="400" height="20" as="geometry"/>
                </mxCell>
                <mxCell id="82" value="" style="shape=flexArrow;endArrow=classic;html=1;entryX=0.16;entryY=0.55;entryDx=0;entryDy=0;entryPerimeter=0;exitX=0.75;exitY=0;exitDx=0;exitDy=0;" edge="1" parent="1" source="81" target="79">
                    <mxGeometry width="50" height="50" relative="1" as="geometry">
                        <mxPoint x="270" y="820" as="sourcePoint"/>
                        <mxPoint x="320" y="770" as="targetPoint"/>
                    </mxGeometry>
                </mxCell>
                <mxCell id="83" value="dom 对象" style="shape=process;whiteSpace=wrap;html=1;backgroundOutline=1;size=0.041666666666666664;" vertex="1" parent="1">
                    <mxGeometry x="40" y="910" width="110" height="20" as="geometry"/>
                </mxCell>
                <mxCell id="84" value="xml http" style="shape=process;whiteSpace=wrap;html=1;backgroundOutline=1;size=0.041666666666666664;" vertex="1" parent="1">
                    <mxGeometry x="70" y="890" width="110" height="20" as="geometry"/>
                </mxCell>
                <mxCell id="85" value="音频输出" style="shape=process;whiteSpace=wrap;html=1;backgroundOutline=1;size=0.041666666666666664;" vertex="1" parent="1">
                    <mxGeometry x="100" y="870" width="110" height="20" as="geometry"/>
                </mxCell>
                <mxCell id="86" value="" style="shape=flexArrow;endArrow=classic;startArrow=classic;html=1;entryX=0.55;entryY=0.95;entryDx=0;entryDy=0;entryPerimeter=0;" edge="1" parent="1" source="74" target="79">
                    <mxGeometry width="50" height="50" relative="1" as="geometry">
                        <mxPoint x="650" y="900" as="sourcePoint"/>
                        <mxPoint x="700" y="850" as="targetPoint"/>
                    </mxGeometry>
                </mxCell>
                <mxCell id="87" value="硬盘上，&lt;br&gt;不可描述的小电影" style="ellipse;shape=cloud;whiteSpace=wrap;html=1;" vertex="1" parent="1">
                    <mxGeometry x="650" y="690" width="120" height="80" as="geometry"/>
                </mxCell>
                <mxCell id="88" value="" style="shape=flexArrow;endArrow=classic;startArrow=classic;html=1;" edge="1" parent="1" source="74" target="87">
                    <mxGeometry width="50" height="50" relative="1" as="geometry">
                        <mxPoint x="632.0819672131147" y="940" as="sourcePoint"/>
                        <mxPoint x="556" y="736" as="targetPoint"/>
                    </mxGeometry>
                </mxCell>
                <mxCell id="89" value="文件系统" style="shape=process;whiteSpace=wrap;html=1;backgroundOutline=1;size=0.041666666666666664;" vertex="1" parent="1">
                    <mxGeometry x="580" y="680" width="180" height="20" as="geometry"/>
                </mxCell>
                <mxCell id="90" value="网络系统" style="shape=process;whiteSpace=wrap;html=1;backgroundOutline=1;size=0.041666666666666664;" vertex="1" parent="1">
                    <mxGeometry x="470" y="650" width="110" height="20" as="geometry"/>
                </mxCell>
                <mxCell id="91" value="node 操作文件" style="shape=tape;whiteSpace=wrap;html=1;" vertex="1" parent="1">
                    <mxGeometry x="810" y="1130" width="120" height="100" as="geometry"/>
                </mxCell>
                <mxCell id="92" value="" style="endArrow=classic;html=1;entryX=0.483;entryY=0.21;entryDx=0;entryDy=0;entryPerimeter=0;" edge="1" parent="1" source="74" target="91">
                    <mxGeometry width="50" height="50" relative="1" as="geometry">
                        <mxPoint x="440" y="1170" as="sourcePoint"/>
                        <mxPoint x="490" y="1120" as="targetPoint"/>
                    </mxGeometry>
                </mxCell>
                <mxCell id="101" style="edgeStyle=orthogonalEdgeStyle;rounded=0;orthogonalLoop=1;jettySize=auto;html=1;exitX=0;exitY=0.5;exitDx=0;exitDy=0;exitPerimeter=0;" edge="1" parent="1" source="93" target="100">
                    <mxGeometry relative="1" as="geometry"/>
                </mxCell>
                <mxCell id="93" value="node的&lt;br&gt;事件循环模型" style="shape=tape;whiteSpace=wrap;html=1;" vertex="1" parent="1">
                    <mxGeometry x="510" y="1120" width="120" height="100" as="geometry"/>
                </mxCell>
                <mxCell id="95" value="V8 /&amp;nbsp; js 引擎" style="shape=cylinder3;whiteSpace=wrap;html=1;boundedLbl=1;backgroundOutline=1;size=15;" vertex="1" parent="1">
                    <mxGeometry x="264" y="120" width="230" height="60" as="geometry"/>
                </mxCell>
                <mxCell id="100" value="V8 /&amp;nbsp; js 引擎" style="shape=cylinder3;whiteSpace=wrap;html=1;boundedLbl=1;backgroundOutline=1;size=15;" vertex="1" parent="1">
                    <mxGeometry x="294" y="1240" width="230" height="60" as="geometry"/>
                </mxCell>
                <mxCell id="102" value="启动后。&lt;br&gt;loop开始" style="shape=mxgraph.bpmn.loop;html=1;outlineConnect=0;" vertex="1" parent="1">
                    <mxGeometry x="264" y="1140" width="124.75" height="117" as="geometry"/>
                </mxCell>
                <mxCell id="104" value="&lt;div class=&quot;msg-content scaleable&quot; style=&quot;box-sizing: border-box ; margin: 0px ; padding: 0px ; overflow-wrap: break-word ; position: relative ; max-width: 640px ; min-width: 10px ; color: rgb(17 , 31 , 44) ; font-family: , , &amp;#34;pingfang sc&amp;#34; , &amp;#34;hiragino sans gb&amp;#34; , &amp;#34;segoe ui&amp;#34; , , &amp;#34;roboto&amp;#34; , &amp;#34;droid sans&amp;#34; , &amp;#34;helvetica neue&amp;#34; , sans-serif ; font-size: 14px ; text-align: left ; background-color: rgb(242 , 244 , 245)&quot;&gt;&lt;div class=&quot;msg-text normal-text text-msg-over-hidden&quot; style=&quot;box-sizing: border-box ; margin: 0px ; padding: 8px 12px ; border: 1px solid ; border-radius: 9px 3px 9px 9px ; overflow: hidden&quot;&gt;&lt;div class=&quot;origin-content&quot; style=&quot;box-sizing: border-box ; margin: 0px ; padding: 0px&quot;&gt;&amp;nbsp;单线程，事件循环，快，没有争抢问题&lt;/div&gt;&lt;div class=&quot;interaction-info&quot; style=&quot;box-sizing: border-box ; margin: 0px ; padding: 0px ; display: flex ; flex-direction: row ; align-items: center ; border-radius: 3px&quot;&gt;&lt;div class=&quot;interaction-info-wrap&quot; style=&quot;box-sizing: border-box ; margin: 0px ; padding: 0px ; display: flex&quot;&gt;&lt;/div&gt;&lt;/div&gt;&lt;/div&gt;&lt;/div&gt;&lt;div class=&quot;msg-operation &quot; style=&quot;box-sizing: border-box ; margin: 0px ; padding: 0px 4px ; display: flex ; flex-direction: row-reverse ; color: rgb(17 , 31 , 44) ; font-family: , , &amp;#34;pingfang sc&amp;#34; , &amp;#34;hiragino sans gb&amp;#34; , &amp;#34;segoe ui&amp;#34; , , &amp;#34;roboto&amp;#34; , &amp;#34;droid sans&amp;#34; , &amp;#34;helvetica neue&amp;#34; , sans-serif ; font-size: 14px ; text-align: left ; background-color: rgb(242 , 244 , 245)&quot;&gt;&lt;/div&gt;" style="text;html=1;align=center;verticalAlign=middle;resizable=0;points=[];autosize=1;" vertex="1" parent="1">
                    <mxGeometry x="214" y="10" width="280" height="40" as="geometry"/>
                </mxCell>
                <mxCell id="105" value="" style="shape=image;verticalLabelPosition=bottom;labelBackgroundColor=#ffffff;verticalAlign=top;aspect=fixed;imageAspect=0;image=https://www.runoob.com/wp-content/uploads/2015/09/event_loop.jpg;imageBorder=#000000;" vertex="1" parent="1">
                    <mxGeometry x="276.78999999999996" y="1310" width="373.21" height="150" as="geometry"/>
                </mxCell>
            </root>
        </mxGraphModel>
    </diagram>
</mxfile>